<svg xmlns="http://www.w3.org/2000/svg" xmlns:xlink="http://www.w3.org/1999/xlink" width="1080" zoomAndPan="magnify" viewBox="0 0 810 809.999993" height="1080" preserveAspectRatio="xMidYMid meet" version="1.2"><defs><clipPath id="03a64b626b"><path d="M 161.953125 282 L 648.757812 282 L 648.757812 527.824219 L 161.953125 527.824219 Z M 161.953125 282 "/></clipPath><clipPath id="b896358875"><path d="M 579.628906 516.183594 C 570.605469 518.101562 562.785156 516.902344 557.015625 512.71875 C 551.359375 508.617188 547.867188 501.769531 546.921875 492.917969 C 545.390625 478.5625 551.527344 460.203125 563.339844 443.808594 C 575.152344 427.414062 590.632812 415.765625 604.738281 412.667969 C 608.03125 411.941406 611.144531 411.589844 614.039062 411.589844 C 620.160156 411.589844 625.332031 413.191406 629.277344 416.351562 C 635.113281 421.03125 638.210938 429.09375 638.242188 439.675781 C 638.324219 471.984375 609.289062 509.882812 579.636719 516.191406 M 296.375 380.28125 C 296.359375 380.289062 296.339844 380.296875 296.316406 380.304688 C 285.230469 385.242188 273.285156 388.839844 261.621094 392.164062 C 238.984375 398.628906 214.582031 402.144531 191.179688 398.027344 C 183.574219 396.691406 172.175781 393.738281 169.789062 385.171875 C 168.433594 380.304688 170.074219 374.816406 172.699219 370.660156 C 178.574219 361.367188 189.296875 356.753906 199.355469 353.53125 C 210.761719 349.871094 222.761719 348.070312 234.742188 348.199219 C 244.511719 348.304688 254.25 349.699219 263.734375 352.007812 C 273.402344 354.363281 282.90625 357.609375 292.085938 361.449219 C 295.5 362.882812 298.859375 364.464844 302.039062 366.378906 C 305.351562 368.371094 308.375 370.789062 311.464844 373.113281 C 311.464844 373.113281 300.921875 378.25 296.375 380.277344 M 635.40625 408.679688 C 627.199219 402.09375 615.867188 400.15625 602.617188 403.066406 C 569 410.457031 536.089844 454.59375 536.894531 489.632812 C 520.707031 505.242188 502.722656 520.339844 480.019531 521.539062 C 476.726562 521.710938 473.398438 520.945312 470.625 519.160156 C 459.949219 512.289062 465.238281 497.914062 471.050781 487.855469 C 479.367188 473.464844 487.6875 459.078125 496.003906 444.683594 C 501.875 434.523438 508.019531 422.941406 501.417969 411.332031 C 499.566406 408.070312 496.886719 405.332031 493.761719 403.253906 C 484.84375 397.300781 473.914062 396.902344 463.699219 398.652344 C 446.179688 401.636719 429.792969 410.882812 418.175781 424.339844 C 415.511719 407.726562 397.144531 397.226562 380.332031 398.003906 C 363.515625 398.785156 348.34375 408.027344 334.828125 418.054688 C 335.136719 417.828125 334.796875 414.753906 334.804688 414.265625 C 334.8125 412.945312 334.84375 411.632812 334.875 410.3125 C 334.941406 407.679688 335.023438 405.046875 335.039062 402.414062 C 335.082031 394.300781 333.523438 385.707031 328.085938 379.332031 C 326.910156 377.941406 325.722656 376.617188 324.554688 375.21875 L 334.648438 369.273438 C 370.226562 346.429688 406.402344 324.136719 445.324219 307.628906 C 484.339844 291.078125 528.140625 280.480469 569.046875 291.582031 C 583.214844 295.429688 597.1875 302.222656 606.089844 313.894531 C 614.992188 325.5625 617.554688 342.851562 609.296875 354.984375 C 604.011719 362.746094 594.359375 371.027344 599.136719 379.351562 C 601.550781 383.558594 606.761719 385.234375 611.382812 383.726562 C 619.6875 381.011719 622.992188 372.738281 624.1875 364.863281 C 626.300781 350.851562 622.828125 336.886719 615.734375 324.679688 C 607.886719 311.179688 595.609375 299.824219 581.546875 292.929688 C 554.773438 279.796875 523.191406 280.234375 493.941406 286.058594 C 440.105469 296.792969 391.191406 324.316406 344.976562 353.929688 C 338.0625 358.359375 319.289062 368.410156 319.289062 368.410156 C 319.289062 368.410156 311.160156 361.808594 309.710938 360.820312 C 305.351562 357.84375 300.757812 355.21875 295.984375 352.96875 C 271.679688 341.507812 241.984375 339.527344 215.824219 344.671875 C 205.589844 346.683594 195.179688 349.496094 185.765625 354.265625 C 176.683594 358.871094 166.707031 365.890625 163.027344 375.835938 C 161.257812 380.613281 161.636719 385.707031 164.503906 389.972656 C 165.769531 391.863281 167.414062 393.484375 169.191406 394.878906 C 182.226562 405.128906 199.949219 406.773438 215.945312 407.238281 C 252.402344 408.289062 284.714844 395.464844 316.558594 379.082031 C 316.640625 379.046875 318.117188 380.546875 318.214844 380.628906 C 319.542969 381.769531 320.632812 383.117188 321.351562 384.722656 C 323.195312 388.839844 322.746094 394.113281 321.777344 398.410156 C 320.714844 403.171875 318.703125 407.6875 316.453125 412 C 315.320312 414.175781 314.113281 416.304688 312.882812 418.429688 C 297.246094 445.40625 281.609375 472.375 265.972656 499.34375 C 262.785156 504.84375 250.296875 525.589844 250.296875 525.589844 L 272.675781 525.625 C 272.675781 525.625 276.394531 520.339844 278 517.488281 C 287.089844 501.378906 296.179688 485.261719 305.261719 469.152344 C 320.96875 441.308594 340.152344 410.769531 371.351562 403.804688 C 383.5625 401.082031 400.617188 405.722656 397.957031 420.699219 C 397.558594 422.941406 396.703125 425.082031 395.59375 427.074219 C 381.867188 451.796875 367.625 476.222656 352.882812 500.351562 C 350.015625 505.046875 336.832031 525.738281 336.832031 525.738281 L 359.367188 525.683594 C 359.367188 525.683594 362.160156 521.65625 363.171875 519.886719 C 388.601562 475.398438 388.199219 475.804688 401.414062 454.152344 C 414.628906 432.496094 432.6875 412.007812 456.957031 404.628906 C 468.6875 401.058594 485.074219 402.851562 486.3125 417.257812 C 486.679688 421.511719 485.535156 425.753906 483.367188 429.429688 C 474.117188 445.066406 464.878906 460.714844 455.632812 476.359375 C 450.402344 485.207031 444.972656 494.980469 446.503906 505.144531 C 448.542969 518.703125 462.996094 527.71875 476.707031 527.816406 C 490.414062 527.914062 503.21875 521.179688 514.609375 513.542969 C 522.613281 508.179688 530.226562 502.246094 537.449219 495.871094 C 539.007812 506.644531 543.734375 515.199219 551.257812 520.652344 C 556.957031 524.785156 563.863281 526.886719 571.582031 526.886719 C 574.8125 526.886719 578.1875 526.519531 581.683594 525.777344 C 615.890625 518.5 648.148438 476.636719 648.058594 439.628906 C 648.019531 425.980469 643.65625 415.277344 635.421875 408.679688 "/></clipPath></defs><g id="0606eaafcb"><rect x="0" width="810" y="0" height="809.999993" style="fill:#ffffff;fill-opacity:1;stroke:none;"/><rect x="0" width="810" y="0" height="809.999993" style="fill:#00493b;fill-opacity:1;stroke:none;"/><g clip-rule="nonzero" clip-path="url(#03a64b626b)"><g clip-rule="nonzero" clip-path="url(#b896358875)"><path style=" stroke:none;fill-rule:nonzero;fill:#b79050;fill-opacity:1;" d="M 161.953125 282.175781 L 648.007812 282.175781 L 648.007812 527.824219 L 161.953125 527.824219 Z M 161.953125 282.175781 "/></g></g></g></svg>